# xmcd
#
# Track frame offsets:
#	150
#	12050
#	23566
#	36919
#	48659
#	62688
#	73873
#	87337
#	100188
#	112279
#	125269
#	136410
#	147162
#	162016
#	180357
#	195487
#	208899
#	222331
#	233848
#	247305
#	261057
#	279306
#	290080
#
# Disc length: 4025 seconds
#
# Revision: 1
# Processed by: cddbd v1.5.2PL0 Copyright (c) Steve Scherf et al.
# Submitted via: audiograbber 1.83.01
#
DISCID=5b0fb717
DTITLE=The Greatest Country Music Recordings of All Time - Record 17 and 18
DYEAR=1900
DGENRE=
TTITLE0=Tennessee Ernie Ford - Sixteen Tons
TTITLE1=Sonny James - Young Love
TTITLE2=The Browns - The Three Bells
TTITLE3=Johnny Horton - The Battle Of New Orleans
TTITLE4=Jimmie Dean - Big Bad John
TTITLE5=Floyd Cramer - Last Date
TTITLE6=Claude King - Wolverton Mountain
TTITLE7=Johnny Tillotson - It Keeps Right On A'Hurtin'
TTITLE8=Skeeter Davis - The End Of The World
TTITLE9=Bobby Bare - Detroit City
TTITLE10=Roger Miller - King Of The Road
TTITLE11=Statler Brothers - Flowers On The Wall
TTITLE12=Jeannie C. Riley - Harper Valley PTA
TTITLE13=Bobby Goldsboro - Honey
TTITLE14=Roy Clark - Yesterday When I Was Young
TTITLE15=Lynn Anderson - Rose Garden
TTITLE16=Tanya Tucker - Delta Dawn
TTITLE17=Donna Fargo - The Happiest Girl In The Whole U.S.A.
TTITLE18=Charlie Rich - Behind Closed Doors
TTITLE19=Glen Campbell - Southern Nights
TTITLE20=Ronnie Milsap - What A Difference You've Made In My Life
TTITLE21=Barbara Mandrell - Sleeping Single In A Double Bed
TTITLE22=Larry Gatlin - All The Gold In California
EXTD=
EXTT0=
EXTT1=
EXTT2=
EXTT3=
EXTT4=
EXTT5=
EXTT6=
EXTT7=
EXTT8=
EXTT9=
EXTT10=
EXTT11=
EXTT12=
EXTT13=
EXTT14=
EXTT15=
EXTT16=
EXTT17=
EXTT18=
EXTT19=
EXTT20=
EXTT21=
EXTT22=
PLAYORDER=
